<svg width="33" height="34" viewBox="0 0 33 34" fill="current" stroke="current" xmlns="http://www.w3.org/2000/svg">
  <path d="M23.375 25.5007C21.8487 25.5007 20.625 26.7615 20.625 28.334C20.625 29.0854 20.9147 29.8061 21.4305 30.3375C21.9462 30.8688 22.6457 31.1673 23.375 31.1673C24.1043 31.1673 24.8038 30.8688 25.3195 30.3375C25.8353 29.8061 26.125 29.0854 26.125 28.334C26.125 26.7615 24.8875 25.5007 23.375 25.5007ZM1.375 2.83398V5.66732H4.125L9.075 16.4198L7.205 19.8907C6.99875 20.2873 6.875 20.7548 6.875 21.2507C6.875 22.0021 7.16473 22.7228 7.68046 23.2541C8.19618 23.7855 8.89565 24.084 9.625 24.084H26.125V21.2507H10.2025C10.1113 21.2507 10.0239 21.2133 9.95943 21.1469C9.89497 21.0805 9.85875 20.9904 9.85875 20.8965C9.85875 20.8257 9.8725 20.769 9.9 20.7265L11.1375 18.4173H21.3813C22.4125 18.4173 23.32 17.8223 23.7875 16.9582L28.71 7.79232C28.8062 7.56565 28.875 7.32482 28.875 7.08398C28.875 6.70826 28.7301 6.34793 28.4723 6.08225C28.2144 5.81657 27.8647 5.66732 27.5 5.66732H7.16375L5.87125 2.83398M9.625 25.5007C8.09875 25.5007 6.875 26.7615 6.875 28.334C6.875 29.0854 7.16473 29.8061 7.68046 30.3375C8.19618 30.8688 8.89565 31.1673 9.625 31.1673C10.3543 31.1673 11.0538 30.8688 11.5695 30.3375C12.0853 29.8061 12.375 29.0854 12.375 28.334C12.375 26.7615 11.1375 25.5007 9.625 25.5007Z" fill="currentColor" />
</svg>