<svg width="24" height="25" viewBox="0 0 24 25" fill="none" xmlns="http://www.w3.org/2000/svg">
  <path d="M8.82939 10.8967C9.18356 10.6601 9.43973 10.5016 9.20913 9.81406C8.97852 9.12651 8.80209 8.52164 8.24523 9.35771C7.42766 10.5859 9.03385 12.9041 10.54 14.2199C12.0462 15.5358 14.5827 16.8369 15.6901 15.8619C16.4438 15.1978 15.8207 15.1042 15.1084 14.968C14.3962 14.8318 14.2735 15.1069 14.0866 15.4896M21 12.5C21 17.4706 16.9706 21.5 12 21.5C10.3607 21.5 8.82378 21.0617 7.5 20.296L3 21.5L4.37355 17.2811C3.50329 15.8958 3 14.2567 3 12.5C3 7.52944 7.02944 3.5 12 3.5C16.9706 3.5 21 7.52944 21 12.5Z" stroke="#0C1A1A" stroke-linecap="round" stroke-linejoin="round" />
</svg>