<svg width="24" height="24" viewBox="0 0 24 24" fill="none" xmlns="http://www.w3.org/2000/svg">
  <path d="M4.5 18.3848C4.5 18.6942 4.6351 18.9563 4.83789 19.1602C5.04167 19.365 5.30453 19.4998 5.61523 19.499C5.27907 19.4989 5.02465 19.3928 4.81641 19.1846C4.63397 19.0021 4.52861 18.7839 4.50488 18.5059L4.5 18.3848ZM5.6123 4.5C5.3044 4.50106 5.04339 4.63542 4.83984 4.83789C4.65973 5.01708 4.53353 5.24161 4.50586 5.50391L4.5 5.61621C4.5 5.28006 4.60755 5.02584 4.81641 4.81738C5.02504 4.6092 5.27859 4.50142 5.6123 4.5ZM19.0615 12.2129L16.4482 14.8242L16.4463 14.8232L16.4443 14.8213L16.4463 14.8203L19.1035 12.1631C19.0917 12.179 19.0783 12.1961 19.0615 12.2129ZM16.4482 9.1748L19.0625 11.7881C19.0806 11.8063 19.0961 11.8235 19.1084 11.8408L18.4131 11.1465L16.4443 9.17773L16.4482 9.1748Z" fill="currentColor" stroke="currentColor" />
</svg>