<svg width="24" height="24" viewBox="0 0 24 24" fill="none" xmlns="http://www.w3.org/2000/svg">
  <mask id="path-1-inside-1_3001_6601" fill="white">
    <path d="M6 6.3C6 6.13431 5.86569 6 5.7 6H4.3C4.13431 6 4 6.13431 4 6.3V6.7C4 6.86569 4.13431 7 4.3 7H5.7C5.86569 7 6 6.86569 6 6.7V6.3ZM20 6.3C20 6.13431 19.8657 6 19.7 6H8.3C8.13432 6 8 6.13431 8 6.3V6.7C8 6.86569 8.13431 7 8.3 7H19.7C19.8657 7 20 6.86569 20 6.7V6.3ZM4 11.3C4 11.1343 4.13431 11 4.3 11H5.7C5.86569 11 6 11.1343 6 11.3V11.7C6 11.8657 5.86569 12 5.7 12H4.3C4.13431 12 4 11.8657 4 11.7V11.3ZM20 11.3C20 11.1343 19.8657 11 19.7 11H8.3C8.13432 11 8 11.1343 8 11.3V11.7C8 11.8657 8.13431 12 8.3 12H19.7C19.8657 12 20 11.8657 20 11.7V11.3ZM4 16.3C4 16.1343 4.13431 16 4.3 16H5.7C5.86569 16 6 16.1343 6 16.3V16.7C6 16.8657 5.86569 17 5.7 17H4.3C4.13431 17 4 16.8657 4 16.7V16.3ZM20 16.3C20 16.1343 19.8657 16 19.7 16H8.3C8.13432 16 8 16.1343 8 16.3V16.7C8 16.8657 8.13431 17 8.3 17H19.7C19.8657 17 20 16.8657 20 16.7V16.3Z" />
  </mask>
  <path d="M6 6.3C6 6.13431 5.86569 6 5.7 6H4.3C4.13431 6 4 6.13431 4 6.3V6.7C4 6.86569 4.13431 7 4.3 7H5.7C5.86569 7 6 6.86569 6 6.7V6.3ZM20 6.3C20 6.13431 19.8657 6 19.7 6H8.3C8.13432 6 8 6.13431 8 6.3V6.7C8 6.86569 8.13431 7 8.3 7H19.7C19.8657 7 20 6.86569 20 6.7V6.3ZM4 11.3C4 11.1343 4.13431 11 4.3 11H5.7C5.86569 11 6 11.1343 6 11.3V11.7C6 11.8657 5.86569 12 5.7 12H4.3C4.13431 12 4 11.8657 4 11.7V11.3ZM20 11.3C20 11.1343 19.8657 11 19.7 11H8.3C8.13432 11 8 11.1343 8 11.3V11.7C8 11.8657 8.13431 12 8.3 12H19.7C19.8657 12 20 11.8657 20 11.7V11.3ZM4 16.3C4 16.1343 4.13431 16 4.3 16H5.7C5.86569 16 6 16.1343 6 16.3V16.7C6 16.8657 5.86569 17 5.7 17H4.3C4.13431 17 4 16.8657 4 16.7V16.3ZM20 16.3C20 16.1343 19.8657 16 19.7 16H8.3C8.13432 16 8 16.1343 8 16.3V16.7C8 16.8657 8.13431 17 8.3 17H19.7C19.8657 17 20 16.8657 20 16.7V16.3Z" fill="#0C1A1A" />
  <path d="M5.7 5H4.3V7H5.7V5ZM3 6.3V6.7H5V6.3H3ZM4.3 8H5.7V6H4.3V8ZM7 6.7V6.3H5V6.7H7ZM19.7 5H8.3V7H19.7V5ZM7 6.3V6.7H9V6.3H7ZM8.3 8H19.7V6H8.3V8ZM21 6.7V6.3H19V6.7H21ZM4.3 12H5.7V10H4.3V12ZM5 11.3V11.7H7V11.3H5ZM5.7 11H4.3V13H5.7V11ZM5 11.7V11.3H3V11.7H5ZM19.7 10H8.3V12H19.7V10ZM7 11.3V11.7H9V11.3H7ZM8.3 13H19.7V11H8.3V13ZM21 11.7V11.3H19V11.7H21ZM4.3 17H5.7V15H4.3V17ZM5 16.3V16.7H7V16.3H5ZM5.7 16H4.3V18H5.7V16ZM5 16.7V16.3H3V16.7H5ZM19.7 15H8.3V17H19.7V15ZM7 16.3V16.7H9V16.3H7ZM8.3 18H19.7V16H8.3V18ZM21 16.7V16.3H19V16.7H21ZM19.7 18C20.418 18 21 17.418 21 16.7H19C19 16.3134 19.3134 16 19.7 16V18ZM7 16.7C7 17.418 7.58203 18 8.3 18V16C8.6866 16 9 16.3134 9 16.7H7ZM8.3 15C7.58203 15 7 15.582 7 16.3H9C9 16.6866 8.6866 17 8.3 17V15ZM19.7 17C19.3134 17 19 16.6866 19 16.3H21C21 15.582 20.418 15 19.7 15V17ZM4.3 16C4.6866 16 5 16.3134 5 16.7H3C3 17.418 3.58203 18 4.3 18V16ZM5 16.7C5 16.3134 5.3134 16 5.7 16V18C6.41797 18 7 17.418 7 16.7H5ZM5.7 17C5.3134 17 5 16.6866 5 16.3H7C7 15.582 6.41797 15 5.7 15V17ZM4.3 15C3.58203 15 3 15.582 3 16.3H5C5 16.6866 4.6866 17 4.3 17V15ZM19.7 13C20.418 13 21 12.418 21 11.7H19C19 11.3134 19.3134 11 19.7 11V13ZM7 11.7C7 12.418 7.58203 13 8.3 13V11C8.6866 11 9 11.3134 9 11.7H7ZM8.3 10C7.58203 10 7 10.582 7 11.3H9C9 11.6866 8.6866 12 8.3 12V10ZM19.7 12C19.3134 12 19 11.6866 19 11.3H21C21 10.582 20.418 10 19.7 10V12ZM4.3 11C4.6866 11 5 11.3134 5 11.7H3C3 12.418 3.58203 13 4.3 13V11ZM5 11.7C5 11.3134 5.3134 11 5.7 11V13C6.41797 13 7 12.418 7 11.7H5ZM5.7 12C5.3134 12 5 11.6866 5 11.3H7C7 10.582 6.41797 10 5.7 10V12ZM4.3 10C3.58203 10 3 10.582 3 11.3H5C5 11.6866 4.6866 12 4.3 12V10ZM19.7 8C20.418 8 21 7.41797 21 6.7H19C19 6.3134 19.3134 6 19.7 6V8ZM7 6.7C7 7.41797 7.58203 8 8.3 8V6C8.6866 6 9 6.3134 9 6.7H7ZM8.3 5C7.58203 5 7 5.58203 7 6.3H9C9 6.6866 8.6866 7 8.3 7V5ZM19.7 7C19.3134 7 19 6.6866 19 6.3H21C21 5.58203 20.418 5 19.7 5V7ZM5.7 8C6.41797 8 7 7.41797 7 6.7H5C5 6.3134 5.3134 6 5.7 6V8ZM3 6.7C3 7.41797 3.58203 8 4.3 8V6C4.6866 6 5 6.3134 5 6.7H3ZM4.3 5C3.58203 5 3 5.58203 3 6.3H5C5 6.6866 4.6866 7 4.3 7V5ZM5.7 7C5.3134 7 5 6.6866 5 6.3H7C7 5.58203 6.41797 5 5.7 5V7Z" fill="currentColor" mask="url(#path-1-inside-1_3001_6601)" />
</svg>