<svg width="24" height="24" viewBox="0 0 24 24" fill="none" xmlns="http://www.w3.org/2000/svg">
  <path d="M15.5 3H9C5.68629 3 3 5.68629 3 9V15.5C3 18.8137 5.68629 21.5 9 21.5H15.5C18.8137 21.5 21.5 18.8137 21.5 15.5V9C21.5 5.68629 18.8137 3 15.5 3Z" stroke="currentColor" />
  <path d="M7 15L9.45 11.74C9.60003 11.5392 9.81998 11.4021 10.0663 11.3558C10.3126 11.3095 10.5673 11.3574 10.78 11.49L13.17 13C13.3909 13.1406 13.6581 13.1891 13.9142 13.1348C14.1704 13.0806 14.3951 12.9281 14.54 12.71L17 9" stroke="currentColor" stroke-linecap="round" stroke-linejoin="round" />
</svg>