<svg stroke-with='1' stoke='black'  width="24" height="24" viewBox="0 0 24 24" fill="none" xmlns="http://www.w3.org/2000/svg">
  <path d="M4.5 18.7002C4.50011 19.1419 4.85813 19.4999 5.2998 19.5H4.5V18.7002ZM4.5 11.2002C4.50011 11.6419 4.85813 11.9999 5.2998 12C4.85813 12.0001 4.50011 12.3581 4.5 12.7998V11.2002ZM4.5 4.5H5.2998C4.85813 4.50011 4.50011 4.85813 4.5 5.2998V4.5ZM10.2002 19.5C10.6419 19.4999 10.9999 19.1419 11 18.7002C11.0001 19.1419 11.3581 19.4999 11.7998 19.5H10.2002ZM18.7002 19.5C19.1419 19.4999 19.4999 19.1419 19.5 18.7002V19.5H18.7002ZM11.7998 12C11.3581 12.0001 11.0001 12.3581 11 12.7998C10.9999 12.3581 10.6419 12.0001 10.2002 12H11.7998ZM18.7002 12C19.1419 11.9999 19.4999 11.6419 19.5 11.2002V12.7998C19.4999 12.3581 19.1419 12.0001 18.7002 12ZM19.5 5.2998C19.4999 4.85813 19.1419 4.50011 18.7002 4.5H19.5V5.2998Z" fill="#0C1A1A" stroke="#0C1A1A" />
</svg>