<svg width="25" height="24" viewBox="0 0 25 24" fill="none" xmlns="http://www.w3.org/2000/svg">
  <path d="M12.5002 12.0002V21.0002M12.5002 12.0002L10.0002 14.0002M12.5002 12.0002L15.0002 14.0002M5.53421 9.11719C4.58842 9.35518 3.76208 9.93035 3.21046 10.7346C2.65883 11.5389 2.41989 12.5169 2.53851 13.485C2.65714 14.453 3.12517 15.3444 3.85467 15.9917C4.58417 16.639 5.52494 16.9976 6.50021 17.0002H7.50021" stroke="#191D23" stroke-width="2" stroke-linecap="round" stroke-linejoin="round" />
  <path d="M16.3302 7.13772C15.9884 5.78429 15.1447 4.61146 13.9703 3.85698C12.7958 3.10249 11.3784 2.82281 10.0054 3.07462C8.6324 3.32643 7.4065 4.0909 6.57622 5.21306C5.74595 6.33521 5.37342 7.73109 5.53416 9.11772C5.53416 9.11772 5.68716 9.99972 6.00016 10.4997" stroke="#191D23" stroke-width="2" stroke-linecap="round" stroke-linejoin="round" />
  <path d="M17.5 17C18.206 16.9995 18.904 16.8495 19.5479 16.5599C20.1917 16.2702 20.767 15.8475 21.2357 15.3195C21.7045 14.7915 22.0561 14.1702 22.2674 13.4965C22.4787 12.8229 22.545 12.1121 22.4618 11.4109C22.3786 10.7098 22.1479 10.0343 21.7848 9.42874C21.4217 8.82321 20.9345 8.30145 20.3552 7.89778C19.776 7.49412 19.1178 7.21772 18.424 7.08676C17.7302 6.9558 17.0166 6.97327 16.33 7.138L15 7.5" stroke="#191D23" stroke-width="2" stroke-linecap="round" stroke-linejoin="round" />
</svg>