<svg width="24" height="24" viewBox="0 0 24 24" fill="none" xmlns="http://www.w3.org/2000/svg">
  <path d="M13.8299 18.9993C13.6805 18.9998 13.5329 18.9668 13.3979 18.9028C13.263 18.8388 13.144 18.7453 13.0499 18.6293L8.21992 12.6293C8.07284 12.4504 7.99243 12.2259 7.99243 11.9943C7.99243 11.7627 8.07284 11.5382 8.21992 11.3593L13.2199 5.3593C13.3897 5.15508 13.6336 5.02666 13.898 5.00228C14.1624 4.9779 14.4257 5.05956 14.6299 5.2293C14.8341 5.39904 14.9626 5.64295 14.9869 5.90738C15.0113 6.1718 14.9297 6.43508 14.7599 6.6393L10.2899 11.9993L14.6099 17.3593C14.7322 17.5061 14.8099 17.6848 14.8338 17.8744C14.8576 18.0639 14.8267 18.2563 14.7447 18.4289C14.6626 18.6014 14.5328 18.7468 14.3707 18.8479C14.2086 18.949 14.021 19.0015 13.8299 18.9993Z" fill="#1E2426" />
</svg>