<svg width="34" height="34" viewBox="0 0 34 34" fill="none" xmlns="http://www.w3.org/2000/svg">
  <path d="M23.4935 25.5007C21.9669 25.5007 20.7428 26.7615 20.7428 28.334C20.7428 29.0854 21.0326 29.8061 21.5485 30.3375C22.0643 30.8688 22.764 31.1673 23.4935 31.1673C24.2231 31.1673 24.9227 30.8688 25.4386 30.3375C25.9544 29.8061 26.2442 29.0854 26.2442 28.334C26.2442 26.7615 25.0064 25.5007 23.4935 25.5007ZM1.48779 2.83398V5.66732H4.23851L9.1898 16.4198L7.31931 19.8907C7.11301 20.2873 6.98923 20.7548 6.98923 21.2507C6.98923 22.0021 7.27903 22.7228 7.79489 23.2541C8.31075 23.7855 9.01041 24.084 9.73994 24.084H26.2442V21.2507H10.3176C10.2264 21.2507 10.1389 21.2133 10.0745 21.1469C10.01 21.0805 9.97375 20.9904 9.97375 20.8965C9.97375 20.8257 9.98751 20.769 10.015 20.7265L11.2528 18.4173H21.4993C22.5308 18.4173 23.4385 17.8223 23.9061 16.9582L28.8299 7.79232C28.9262 7.56565 28.995 7.32482 28.995 7.08398C28.995 6.70826 28.8501 6.34793 28.5921 6.08225C28.3342 5.81657 27.9844 5.66732 27.6196 5.66732H7.27805L5.98521 2.83398M9.73994 25.5007C8.21329 25.5007 6.98923 26.7615 6.98923 28.334C6.98923 29.0854 7.27903 29.8061 7.79489 30.3375C8.31075 30.8688 9.01041 31.1673 9.73994 31.1673C10.4695 31.1673 11.1691 30.8688 11.685 30.3375C12.2009 29.8061 12.4907 29.0854 12.4907 28.334C12.4907 26.7615 11.2528 25.5007 9.73994 25.5007Z" fill="#1E2426" />
</svg>