<svg width="38" height="38" viewBox="0 0 38 38" fill="none" xmlns="http://www.w3.org/2000/svg">
  <mask id="mask0_4020_1802" style="mask-type:luminance" maskUnits="userSpaceOnUse" x="1" y="8" width="13" height="22">
    <path d="M1.19629 8.23438H13.6289V29.7677H1.19629V8.23438Z" fill="white" />
  </mask>
  <g mask="url(#mask0_4020_1802)">
    <mask id="mask1_4020_1802" style="mask-type:luminance" maskUnits="userSpaceOnUse" x="1" y="0" width="36" height="38">
      <path d="M36.3575 15.6894H19.3974V22.7211H29.1598C28.2497 27.1882 24.4441 29.7528 19.3974 29.7528C13.4407 29.7528 8.64221 24.9547 8.64221 18.9984C8.64221 13.0422 13.4407 8.24406 19.3974 8.24406C21.9621 8.24406 24.2786 9.15408 26.0987 10.6431L31.3935 5.34873C28.167 2.53604 24.0304 0.798828 19.3974 0.798828C9.30404 0.798828 1.19629 8.90589 1.19629 18.9984C1.19629 29.0909 9.30404 37.198 19.3974 37.198C28.4979 37.198 36.7711 30.5799 36.7711 18.9984C36.7711 17.923 36.6057 16.7648 36.3575 15.6894Z" fill="white" />
    </mask>
    <g mask="url(#mask1_4020_1802)">
      <path d="M-0.458008 29.7528V8.24414L13.6064 18.9984L-0.458008 29.7528Z" fill="#FBBC05" />
    </g>
  </g>
  <mask id="mask2_4020_1802" style="mask-type:luminance" maskUnits="userSpaceOnUse" x="1" y="0" width="36" height="19">
    <path d="M1.19629 0.785156H36.7711V18.9998H1.19629V0.785156Z" fill="white" />
  </mask>
  <g mask="url(#mask2_4020_1802)">
    <mask id="mask3_4020_1802" style="mask-type:luminance" maskUnits="userSpaceOnUse" x="1" y="0" width="36" height="38">
      <path d="M36.3575 15.6894H19.3974V22.7211H29.1598C28.2497 27.1882 24.4441 29.7528 19.3974 29.7528C13.4407 29.7528 8.64221 24.9547 8.64221 18.9984C8.64221 13.0422 13.4407 8.24406 19.3974 8.24406C21.9621 8.24406 24.2786 9.15408 26.0987 10.6431L31.3935 5.34873C28.167 2.53604 24.0304 0.798828 19.3974 0.798828C9.30404 0.798828 1.19629 8.90589 1.19629 18.9984C1.19629 29.0909 9.30404 37.198 19.3974 37.198C28.4979 37.198 36.7711 30.5799 36.7711 18.9984C36.7711 17.923 36.6057 16.7648 36.3575 15.6894Z" fill="white" />
    </mask>
    <g mask="url(#mask3_4020_1802)">
      <path d="M-0.458008 8.24434L13.6064 18.9986L19.3977 13.9525L39.2534 10.7261V-0.855469H-0.458008V8.24434Z" fill="#EA4335" />
    </g>
  </g>
  <mask id="mask4_4020_1802" style="mask-type:luminance" maskUnits="userSpaceOnUse" x="1" y="0" width="36" height="38">
    <path d="M1.19629 0.785156H36.7711V37.1976H1.19629V0.785156Z" fill="white" />
  </mask>
  <g mask="url(#mask4_4020_1802)">
    <mask id="mask5_4020_1802" style="mask-type:luminance" maskUnits="userSpaceOnUse" x="1" y="0" width="36" height="38">
      <path d="M36.3575 15.6894H19.3974V22.7211H29.1598C28.2497 27.1882 24.4441 29.7528 19.3974 29.7528C13.4407 29.7528 8.64221 24.9547 8.64221 18.9984C8.64221 13.0422 13.4407 8.24406 19.3974 8.24406C21.9621 8.24406 24.2786 9.15408 26.0987 10.6431L31.3935 5.34873C28.167 2.53604 24.0304 0.798828 19.3974 0.798828C9.30404 0.798828 1.19629 8.90589 1.19629 18.9984C1.19629 29.0909 9.30404 37.198 19.3974 37.198C28.4979 37.198 36.7711 30.5799 36.7711 18.9984C36.7711 17.923 36.6057 16.7648 36.3575 15.6894Z" fill="white" />
    </mask>
    <g mask="url(#mask5_4020_1802)">
      <path d="M-0.458008 29.753L24.3616 10.7261L30.8974 11.5534L39.2534 -0.855469V38.8529H-0.458008V29.753Z" fill="#34A853" />
    </g>
  </g>
  <mask id="mask6_4020_1802" style="mask-type:luminance" maskUnits="userSpaceOnUse" x="10" y="8" width="27" height="30">
    <path d="M10.2852 8.23242H36.7714V37.1968H10.2852V8.23242Z" fill="white" />
  </mask>
  <g mask="url(#mask6_4020_1802)">
    <mask id="mask7_4020_1802" style="mask-type:luminance" maskUnits="userSpaceOnUse" x="1" y="0" width="36" height="38">
      <path d="M36.3575 15.6874H19.3974V22.7191H29.1598C28.2497 27.1863 24.4441 29.7508 19.3974 29.7508C13.4407 29.7508 8.64221 24.9527 8.64221 18.9964C8.64221 13.0402 13.4407 8.24211 19.3974 8.24211C21.9621 8.24211 24.2786 9.15213 26.0987 10.6412L31.3935 5.34678C28.167 2.53409 24.0304 0.796875 19.3974 0.796875C9.30404 0.796875 1.19629 8.90394 1.19629 18.9964C1.19629 29.089 9.30404 37.196 19.3974 37.196C28.4979 37.196 36.7711 30.578 36.7711 18.9964C36.7711 17.921 36.6057 16.7628 36.3575 15.6874Z" fill="white" />
    </mask>
    <g mask="url(#mask7_4020_1802)">
      <path d="M39.2531 38.8507L13.6061 18.9965L10.2969 16.5148L39.2531 8.24219V38.8507Z" fill="#4285F4" />
    </g>
  </g>
</svg>