<svg width="131" height="74" viewBox="0 0 131 74" fill="none" xmlns="http://www.w3.org/2000/svg">
<path d="M30.3238 31.2486C24.7102 31.2486 21.0466 27.644 21.0466 22.0895C21.0466 16.594 24.7693 12.9304 30.3238 12.9304C35.9375 12.9304 39.6011 16.5349 39.6011 22.0895C39.6011 27.5849 35.8784 31.2486 30.3238 31.2486ZM30.3238 27.3486C33.042 27.3486 34.7557 25.3986 34.7557 22.0895C34.7557 18.7804 33.042 16.8304 30.3238 16.8304C27.6057 16.8304 25.892 18.7804 25.892 22.0895C25.892 25.3986 27.6057 27.3486 30.3238 27.3486ZM47.342 26.994H56.6784V30.9531H41.2556V27.4077L50.5329 17.1259H41.7875V13.2259H56.5602V16.7713L47.342 26.994ZM72.2193 13.2259H77.242L71.6284 30.3031C70.0329 35.0895 67.8465 37.1577 64.4193 37.1577C60.8738 37.1577 58.5102 34.8531 58.5102 31.3668C58.5102 29.6531 59.1011 28.2349 60.342 26.8759H62.8238L57.5647 13.2259H62.6465L67.3147 26.8759H68.2602L72.2193 13.2259ZM64.4193 33.3168C65.6011 33.3168 66.3693 32.5486 66.842 31.0122L67.0784 30.244H62.8238C62.6465 30.6577 62.5284 31.0713 62.5284 31.544C62.5284 32.6077 63.2965 33.3168 64.4193 33.3168ZM30.3238 67.2486C24.7102 67.2486 21.0466 63.644 21.0466 58.0895C21.0466 52.594 24.7693 48.9304 30.3238 48.9304C35.9375 48.9304 39.6011 52.5349 39.6011 58.0895C39.6011 63.5849 35.8784 67.2486 30.3238 67.2486ZM30.3238 63.3486C33.042 63.3486 34.7557 61.3986 34.7557 58.0895C34.7557 54.7804 33.042 52.8304 30.3238 52.8304C27.6057 52.8304 25.892 54.7804 25.892 58.0895C25.892 61.3986 27.6057 63.3486 30.3238 63.3486ZM53.5466 48.9895C54.0784 48.9895 54.6102 49.0486 55.142 49.1668L55.0829 53.5395C54.0784 53.4213 53.0738 53.3622 52.2466 53.3622C49.6466 53.3622 47.9329 54.6031 47.9329 57.3213V66.9531H43.2056V49.2259H47.4602L47.6966 51.8849C48.8784 50.1122 51.0056 48.9895 53.5466 48.9895ZM68.5556 48.9304C72.3375 48.9304 74.9375 51.6486 74.9375 55.7259V66.9531H70.2102V56.7895C70.2102 54.2486 69.0284 52.8304 67.0193 52.8304C64.7738 52.8304 62.942 54.4849 62.942 56.8486V66.9531H58.2147V49.2259H62.4693L62.6466 51.7077C64.0056 49.994 66.1329 48.9304 68.5556 48.9304ZM82.9147 59.6259C83.3875 61.9895 85.042 63.3486 87.5829 63.3486C89.7102 63.3486 91.3056 62.5804 92.4284 61.3395L95.3238 64.1759C93.5511 66.0668 90.9511 67.2486 87.5238 67.2486C81.3784 67.2486 78.2465 63.3486 78.2465 58.0895C78.2465 52.6531 81.792 48.9304 87.2284 48.9304C92.6056 48.9304 96.0329 52.5349 96.0329 58.0895C96.0329 58.444 96.0329 58.7986 95.8556 59.6259H82.9147ZM87.2284 52.7122C85.042 52.7122 83.5056 54.0122 82.9738 56.1986H91.3056C90.8329 53.9531 89.4147 52.7122 87.2284 52.7122ZM109.919 48.9895C110.451 48.9895 110.983 49.0486 111.515 49.1668L111.456 53.5395C110.451 53.4213 109.447 53.3622 108.619 53.3622C106.019 53.3622 104.306 54.6031 104.306 57.3213V66.9531H99.5784V49.2259H103.833L104.069 51.8849C105.251 50.1122 107.378 48.9895 109.919 48.9895ZM120.674 67.2486C117.483 67.2486 114.528 66.244 112.637 64.5895L115.06 61.2213C116.419 62.4622 118.428 63.2895 120.851 63.2895C122.447 63.2895 123.806 62.8759 123.806 61.9304C123.806 61.1622 123.156 60.7486 120.142 60.0395C115.474 58.9168 113.465 57.2031 113.465 54.3668C113.465 51.0577 116.36 48.9304 120.91 48.9304C123.569 48.9304 125.874 49.6986 128.06 51.1168L125.637 54.544C124.042 53.3622 122.506 52.8304 120.497 52.8304C118.96 52.8304 117.956 53.3031 117.956 54.1895C117.956 55.0168 118.665 55.4304 121.206 56.0213C126.406 57.2622 128.356 58.7986 128.356 61.7531C128.356 65.2395 125.578 67.2486 120.674 67.2486Z" fill="#3C767E"/>
<rect width="4.72762" height="15.8382" transform="matrix(0.600395 -0.799602 -0.799874 -0.600303 18.8928 70.3145)" fill="#3C767E"/>
<rect width="4.72815" height="15.5942" transform="matrix(-0.799874 -0.600304 -0.600395 0.799602 17.0376 49.3906)" fill="#3C767E"/>
<rect width="4.72762" height="15.8382" transform="matrix(0.600395 -0.799602 -0.799874 -0.600304 19.1272 33.6777)" fill="#3C767E"/>
<rect width="4.72815" height="15.5942" transform="matrix(-0.799874 -0.600304 -0.600395 0.799602 17.272 12.7539)" fill="#3C767E"/>
</svg>
