<svg width="111" height="76" viewBox="0 0 111 76" fill="none" xmlns="http://www.w3.org/2000/svg">
<rect width="5" height="17" transform="matrix(-0.744779 -0.667311 -0.667311 0.744779 15.0684 9.90137)" fill="#3C767E"/>
<rect width="5" height="17" transform="matrix(0.708569 -0.705641 -0.705641 -0.708569 12.1484 31.4346)" fill="#3C767E"/>
<path d="M26.5409 28.39C24.8809 28.39 23.4409 28.09 22.2209 27.49C21.0209 26.87 20.1009 26.01 19.4609 24.91C18.8409 23.81 18.5309 22.52 18.5309 21.04C18.5309 19.54 18.8809 18.18 19.5809 16.96C20.2809 15.74 21.2509 14.78 22.4909 14.08C23.7309 13.38 25.1209 13.03 26.6609 13.03C28.3209 13.03 29.7509 13.34 30.9509 13.96C32.1509 14.56 33.0609 15.41 33.6809 16.51C34.3209 17.61 34.6409 18.9 34.6409 20.38C34.6409 21.88 34.2909 23.24 33.5909 24.46C32.8909 25.68 31.9209 26.64 30.6809 27.34C29.4609 28.04 28.0809 28.39 26.5409 28.39ZM26.7509 25.93C27.4509 25.93 27.9909 25.56 28.3709 24.82C28.7509 24.06 28.9409 22.75 28.9409 20.89C28.9409 17.31 28.1109 15.52 26.4509 15.52C25.7509 15.52 25.2009 15.89 24.8009 16.63C24.4209 17.37 24.2309 18.67 24.2309 20.53C24.2309 24.13 25.0709 25.93 26.7509 25.93ZM49.7262 28H36.1662V26.2L43.6362 15.52H39.5262L38.4762 18.31H36.6462L36.4962 13.42H49.6362V15.22L42.1962 25.93H46.6662L47.7462 22.81H49.5762L49.7262 28ZM60.829 13.42H66.889V15.31L65.359 16.06L60.379 28.12C59.519 30.26 58.539 31.82 57.439 32.8C56.339 33.8 55.079 34.3 53.659 34.3C52.999 34.3 52.369 34.22 51.769 34.06V30.01C52.489 30.37 53.259 30.55 54.079 30.55C55.479 30.55 56.609 29.83 57.469 28.39L57.499 28.33L51.649 16.06L50.239 15.31V13.42H58.579V15.31L56.989 15.97L59.959 23.5L62.569 15.97L60.829 15.31V13.42Z" fill="#3C767E"/>
<rect width="5" height="17" transform="matrix(-0.744779 -0.667311 -0.667311 0.744779 15.0684 47.9014)" fill="#3C767E"/>
<rect width="5" height="17" transform="matrix(0.708569 -0.705641 -0.705641 -0.708569 12.1484 69.4346)" fill="#3C767E"/>
<path d="M26.5409 66.39C24.8809 66.39 23.4409 66.09 22.2209 65.49C21.0209 64.87 20.1009 64.01 19.4609 62.91C18.8409 61.81 18.5309 60.52 18.5309 59.04C18.5309 57.54 18.8809 56.18 19.5809 54.96C20.2809 53.74 21.2509 52.78 22.4909 52.08C23.7309 51.38 25.1209 51.03 26.6609 51.03C28.3209 51.03 29.7509 51.34 30.9509 51.96C32.1509 52.56 33.0609 53.41 33.6809 54.51C34.3209 55.61 34.6409 56.9 34.6409 58.38C34.6409 59.88 34.2909 61.24 33.5909 62.46C32.8909 63.68 31.9209 64.64 30.6809 65.34C29.4609 66.04 28.0809 66.39 26.5409 66.39ZM26.7509 63.93C27.4509 63.93 27.9909 63.56 28.3709 62.82C28.7509 62.06 28.9409 60.75 28.9409 58.89C28.9409 55.31 28.1109 53.52 26.4509 53.52C25.7509 53.52 25.2009 53.89 24.8009 54.63C24.4209 55.37 24.2309 56.67 24.2309 58.53C24.2309 62.13 25.0709 63.93 26.7509 63.93ZM36.3134 66V64.14L38.0834 63.39V55.35L36.3134 54.87V53.01L42.0434 51.33L42.9134 53.43C44.0334 52.61 44.9134 52.04 45.5534 51.72C46.2134 51.38 46.7534 51.21 47.1734 51.21C47.4334 51.21 47.6834 51.26 47.9234 51.36V55.41C47.3034 55.15 46.6234 55.02 45.8834 55.02C44.9434 55.02 44.0634 55.23 43.2434 55.65V63.39L45.5834 64.14V66H36.3134ZM49.0283 66V64.14L50.7983 63.39V55.35L49.0283 54.87V53.01L54.7583 51.33L55.6283 53.37C57.0283 52.47 58.0683 51.87 58.7483 51.57C59.4283 51.27 60.0783 51.12 60.6983 51.12C62.0383 51.12 63.1183 51.62 63.9383 52.62C64.7583 53.62 65.1683 55.06 65.1683 56.94V63.39L66.9083 64.14V66H58.8083V64.14L60.0083 63.39V56.94C60.0083 56.26 59.8283 55.73 59.4683 55.35C59.1083 54.95 58.6283 54.75 58.0283 54.75C57.2483 54.75 56.5583 55.02 55.9583 55.56V63.39L57.1583 64.14V66H49.0283ZM83.1047 57.84C83.1047 58.56 83.0547 59.12 82.9547 59.52H73.5047C73.7247 60.64 74.1847 61.51 74.8847 62.13C75.6047 62.73 76.5147 63.03 77.6147 63.03C78.9347 63.03 80.1747 62.55 81.3347 61.59L82.6547 63.24C81.8147 64.28 80.8447 65.07 79.7447 65.61C78.6447 66.13 77.3347 66.39 75.8147 66.39C74.2947 66.39 72.9347 66.09 71.7347 65.49C70.5547 64.87 69.6247 64 68.9447 62.88C68.2847 61.74 67.9547 60.44 67.9547 58.98C67.9547 57.48 68.2947 56.13 68.9747 54.93C69.6547 53.71 70.5847 52.76 71.7647 52.08C72.9447 51.38 74.2647 51.03 75.7247 51.03C77.9847 51.03 79.7747 51.64 81.0947 52.86C82.4347 54.08 83.1047 55.74 83.1047 57.84ZM77.7047 57.27C77.6047 55.97 77.3547 54.99 76.9547 54.33C76.5547 53.67 76.0447 53.34 75.4247 53.34C74.2047 53.34 73.5347 54.65 73.4147 57.27H77.7047ZM84.624 66V64.14L86.394 63.39V55.35L84.624 54.87V53.01L90.354 51.33L91.224 53.43C92.344 52.61 93.224 52.04 93.864 51.72C94.524 51.38 95.064 51.21 95.484 51.21C95.744 51.21 95.994 51.26 96.234 51.36V55.41C95.614 55.15 94.934 55.02 94.194 55.02C93.254 55.02 92.374 55.23 91.554 55.65V63.39L93.894 64.14V66H84.624ZM102.892 66.39C100.812 66.39 98.9316 65.94 97.2516 65.04L97.7616 60.99H99.5916L100.342 63.51C101.342 63.93 102.282 64.14 103.162 64.14C103.802 64.14 104.272 64.02 104.572 63.78C104.892 63.52 105.052 63.18 105.052 62.76C105.052 62.22 104.812 61.8 104.332 61.5C103.872 61.2 103.152 60.88 102.172 60.54C101.192 60.2 100.392 59.87 99.7716 59.55C99.1716 59.23 98.6516 58.77 98.2116 58.17C97.7716 57.57 97.5516 56.79 97.5516 55.83C97.5516 54.97 97.8016 54.18 98.3016 53.46C98.8216 52.72 99.5816 52.13 100.582 51.69C101.582 51.25 102.782 51.03 104.182 51.03C105.042 51.03 105.932 51.16 106.852 51.42C107.772 51.68 108.582 52.04 109.282 52.5L108.772 56.25H106.912L106.282 53.94C105.562 53.5 104.812 53.28 104.032 53.28C103.432 53.28 102.982 53.4 102.682 53.64C102.402 53.88 102.262 54.21 102.262 54.63C102.262 55.17 102.492 55.59 102.952 55.89C103.412 56.17 104.132 56.47 105.112 56.79C106.072 57.11 106.862 57.43 107.482 57.75C108.122 58.07 108.662 58.54 109.102 59.16C109.542 59.76 109.762 60.55 109.762 61.53C109.762 62.39 109.492 63.19 108.952 63.93C108.432 64.67 107.652 65.27 106.612 65.73C105.592 66.17 104.352 66.39 102.892 66.39Z" fill="#3C767E"/>
</svg>
