<svg width="51" height="51" viewBox="0 0 51 51" fill="none" xmlns="http://www.w3.org/2000/svg">
  <path d="M41.9582 27.6237C43.4504 25.4786 44.3513 22.9783 44.5701 20.3744C44.7889 17.7704 44.3179 15.1548 43.2044 12.7908C42.091 10.4268 40.3745 8.39782 38.2277 6.90808C36.0809 5.41833 33.5795 4.5204 30.9753 4.30469C28.3711 4.08897 25.7561 4.56306 23.3934 5.67926C21.0307 6.79545 19.0037 8.51435 17.5165 10.6629C16.0293 12.8115 15.1343 15.314 14.9217 17.9184C14.709 20.5228 15.1862 23.1373 16.3052 25.4987" stroke="#0C1A1A" stroke-width="1.5" stroke-linecap="round" stroke-linejoin="round" />
  <path d="M29.75 12.75C27.4019 12.75 25.5 14.178 25.5 15.9375C25.5 17.697 27.4019 19.125 29.75 19.125C32.0981 19.125 34 20.553 34 22.3125C34 24.072 32.0981 25.5 29.75 25.5M29.75 12.75C31.5988 12.75 33.1755 13.6361 33.7577 14.875M29.75 12.75V10.625M29.75 25.5C27.9012 25.5 26.3245 24.6139 25.7423 23.375M29.75 25.5V27.625M6.375 29.75H11.4644C12.0891 29.75 12.7054 29.8903 13.2643 30.1623L17.6035 32.2618C18.1624 32.5316 18.7786 32.6719 19.4055 32.6719H21.6197C23.7617 32.6719 25.5 34.3528 25.5 36.4268C25.5 36.5118 25.4426 36.584 25.3598 36.6074L19.9601 38.1013C18.9912 38.3689 17.9581 38.2753 17.0531 37.8377L12.4143 35.5938M25.5 35.0625L35.2601 32.0641C36.1098 31.8034 37.0202 31.8177 37.8612 32.1051C38.7023 32.3924 39.4311 32.9381 39.9436 33.6643C40.7278 34.748 40.409 36.3035 39.2658 36.9622L23.2964 46.1784C22.797 46.4673 22.2441 46.6515 21.6713 46.7198C21.0984 46.7881 20.5177 46.7391 19.9644 46.5757L6.375 42.5425" stroke="#0C1A1A" stroke-width="1.5" stroke-linecap="round" stroke-linejoin="round" />
</svg>