<svg width="24" height="25" viewBox="0 0 24 25" fill="none" xmlns="http://www.w3.org/2000/svg">
  <path d="M7.45203 13.6793C6.34409 11.4182 7.8519 7.01197 12.9239 7.73231C18.5104 8.52574 17.505 17.2096 12.8471 16.8704C11.3732 16.7631 10.8159 15.5417 10.6704 14.2938M10.6704 14.2938C10.5601 13.3478 10.6865 12.3866 10.8296 11.8842C11.0738 11.027 11.4786 11.1436 11.1828 12.2774C11.0388 12.8292 10.8632 13.5219 10.6704 14.2938ZM10.6704 14.2938C10.156 16.3537 9.51993 18.9786 9.03959 21.0018M9.03959 21.0018C9.96672 21.3246 10.9629 21.5 12 21.5C16.9706 21.5 21 17.4706 21 12.5C21 7.52944 16.9706 3.5 12 3.5C7.02944 3.5 3 7.52944 3 12.5C3 16.4334 5.52335 19.7775 9.03959 21.0018Z" stroke="#0C1A1A" stroke-linecap="round" stroke-linejoin="round" />
</svg>