<svg width="35" height="34" viewBox="0 0 35 34" fill="none" xmlns="http://www.w3.org/2000/svg">
  <path d="M17.1351 5.66602C18.6384 5.66602 20.0801 6.26304 21.1431 7.32574C22.2061 8.38845 22.8033 9.82979 22.8033 11.3327C22.8033 12.8356 22.2061 14.2769 21.1431 15.3396C20.0801 16.4023 18.6384 16.9993 17.1351 16.9993C15.6318 16.9993 14.1901 16.4023 13.1271 15.3396C12.0641 14.2769 11.467 12.8356 11.467 11.3327C11.467 9.82979 12.0641 8.38845 13.1271 7.32574C14.1901 6.26304 15.6318 5.66602 17.1351 5.66602ZM17.1351 19.8327C23.3984 19.8327 28.4714 22.3685 28.4714 25.4993V28.3327H5.79883V25.4993C5.79883 22.3685 10.8718 19.8327 17.1351 19.8327Z" fill="#1E2426" />
</svg>