<svg width="16" height="17" viewBox="0 0 16 17" fill="none" xmlns="http://www.w3.org/2000/svg">
  <path d="M2 14.0176H14M9.18961 3.55872C9.18961 3.55872 9.18961 4.64847 10.2794 5.73822C11.3691 6.82797 12.4589 6.82797 12.4589 6.82797M4.87975 12.0096L7.16823 11.6827C7.49833 11.6355 7.80424 11.4826 8.04003 11.2468L13.5486 5.73822C14.1505 5.13637 14.1505 4.16057 13.5486 3.55872L12.4589 2.46897C11.857 1.86712 10.8812 1.86711 10.2794 2.46897L4.77078 7.97755C4.53499 8.21334 4.38203 8.51925 4.33488 8.84935L4.00795 11.1378C3.9353 11.6464 4.3712 12.0823 4.87975 12.0096Z" stroke="#6C7275" stroke-width="1.5" stroke-linecap="round" />
</svg>