<svg width="35" height="34" viewBox="0 0 35 34" fill="none" xmlns="http://www.w3.org/2000/svg">
  <path d="M13.5545 4.25C15.9973 4.25 18.3401 5.22016 20.0675 6.94706C21.7948 8.67396 22.7652 11.0161 22.7652 13.4583C22.7652 15.7392 21.9292 17.8358 20.5546 19.4508L20.9372 19.8333H22.0567L29.1419 26.9167L27.0163 29.0417L19.9311 21.9583V20.8392L19.5485 20.4567C17.9331 21.8308 15.8359 22.6667 13.5545 22.6667C11.1116 22.6667 8.76886 21.6965 7.04151 19.9696C5.31416 18.2427 4.34375 15.9005 4.34375 13.4583C4.34375 11.0161 5.31416 8.67396 7.04151 6.94706C8.76886 5.22016 11.1116 4.25 13.5545 4.25ZM13.5545 7.08333C10.0119 7.08333 7.17782 9.91667 7.17782 13.4583C7.17782 17 10.0119 19.8333 13.5545 19.8333C17.0971 19.8333 19.9311 17 19.9311 13.4583C19.9311 9.91667 17.0971 7.08333 13.5545 7.08333Z" fill="#1E2426" />
</svg>